<svg
  class="wabisque-text"
  xmlns="http://www.w3.org/2000/svg"
  viewBox="0 0 512 70.79"
>
  <g class="paths">
    <path
      class="path"
      d="M62.34,2.94l-6.7,58.5H36.85Q34.27,48,32.29,30.76q-.9,7.38-4.2,30.68H9.4L2.67,2.94H17.29l1.59,20.41,1.54,19.74q.82-15.33,4.16-40.15H40.21q.32,2.57,1.64,19.3L43.52,44.5q1.27-21.26,4.2-41.56Z"
    />
    <path
      class="path"
      d="M90.62,2.94l8.61,58.5H83.84L83,50.93H77.65l-.91,10.51H61.18l7.68-58.5Zm-8,37.62Q81.5,30.62,80.35,16,78,32.79,77.46,40.56Z"
    />
    <path
      class="path"
      d="M101.78,2.94h15a39.46,39.46,0,0,1,10.78,1.12,10.75,10.75,0,0,1,5.92,4.53q2.25,3.42,2.25,11,0,5.13-1.59,7.15t-6.28,3.1q5.22,1.2,7.08,4c1.24,1.85,1.86,4.67,1.86,8.48V47.7c0,4-.44,6.89-1.34,8.79a7.23,7.23,0,0,1-4.27,3.9q-2.94,1.05-12,1H101.78Zm15.06,10V26l1.5,0c1.47,0,2.42-.36,2.82-1.1s.61-2.84.61-6.3a10.37,10.37,0,0,0-.5-3.85A2.37,2.37,0,0,0,120,13.28,11.31,11.31,0,0,0,116.84,13Zm0,22.11V51.43c2.12-.07,3.47-.41,4-1s.88-2.08.88-4.44V40.52c0-2.5-.26-4-.79-4.55S119.08,35.14,116.84,35.06Z"
    />
    <path
      class="path"
      d="M157.28,2.94v58.5H142.22V2.94Z"
    />
    <path
      class="path"
      d="M195.21,20.65h-14V16.31a8.69,8.69,0,0,0-.53-3.86,2,2,0,0,0-1.79-.84,2.28,2.28,0,0,0-2.06,1.13,6.58,6.58,0,0,0-.69,3.39,9.79,9.79,0,0,0,.78,4.42c.5,1,1.92,2.18,4.25,3.57q10,6,12.66,9.9t2.61,12.46q0,6.26-1.44,9.22a11.38,11.38,0,0,1-5.6,5,21.86,21.86,0,0,1-9.65,2,21.44,21.44,0,0,1-10.32-2.31,11.34,11.34,0,0,1-5.6-5.89,30.57,30.57,0,0,1-1.32-10.15V40.49h14V47.6c0,2.2.2,3.6.59,4.23a2.27,2.27,0,0,0,2.09.94,2.45,2.45,0,0,0,2.24-1.19,6.88,6.88,0,0,0,.73-3.54q0-5.17-1.39-6.76A44.55,44.55,0,0,0,173.72,36a69.51,69.51,0,0,1-7.43-5.46,12.74,12.74,0,0,1-3-4.7,21,21,0,0,1-1.19-7.66c0-4.48.56-7.75,1.7-9.82a11.49,11.49,0,0,1,5.48-4.86,21.69,21.69,0,0,1,9.16-1.76,23.55,23.55,0,0,1,10,1.92c2.75,1.28,4.58,2.88,5.47,4.82s1.34,5.24,1.34,9.89Z"
    />
    <path
      class="path"
      d="M235.62,61.44v7.08H224.25a18.05,18.05,0,0,1-5.79-.64,3.88,3.88,0,0,1-2.28-1.9,12,12,0,0,1-.59-4.54,15.75,15.75,0,0,1-8.79-2.71,11.94,11.94,0,0,1-4.86-6.52q-1.19-4-1.18-11.83V22.27a45,45,0,0,1,.69-9.08,14.65,14.65,0,0,1,2.88-5.89,13.6,13.6,0,0,1,5.61-4.18,19.89,19.89,0,0,1,7.62-1.41,22.08,22.08,0,0,1,9,1.74,13.94,13.94,0,0,1,5.9,4.41A14.2,14.2,0,0,1,235,13.4a45.17,45.17,0,0,1,.59,8.54v19q0,7.8-.75,10.59A8,8,0,0,1,232,56a15,15,0,0,1-5.66,2.51c.07,1.31.34,2.13.8,2.47a6.66,6.66,0,0,0,3.31.51ZM220.53,18a18.2,18.2,0,0,0-.45-5.22,1.78,1.78,0,0,0-1.84-1.14,2.05,2.05,0,0,0-1.81.93q-.62.92-.62,5.43V45.29a27.46,27.46,0,0,0,.41,6.29,1.79,1.79,0,0,0,1.91,1.19,1.86,1.86,0,0,0,2-1.37,29,29,0,0,0,.43-6.54Z"
    />
    <path
      class="path"
      d="M275.42,2.94V42a69.61,69.61,0,0,1-.43,9.34,12.89,12.89,0,0,1-2.54,5.53,13.26,13.26,0,0,1-5.56,4.3,20.84,20.84,0,0,1-8.14,1.46,22.77,22.77,0,0,1-9.15-1.73,13.77,13.77,0,0,1-5.94-4.52,12.58,12.58,0,0,1-2.32-5.87q-.36-3.09-.36-13V2.94h15V46.81a17.09,17.09,0,0,0,.42,4.89,1.6,1.6,0,0,0,1.66,1.07A1.74,1.74,0,0,0,260,51.6a22.43,22.43,0,0,0,.41-5.55V2.94Z"
    />
    <path
      class="path"
      d="M281.24,2.94h25.1V14.65h-10V25.74h9.4V36.87h-9.4V49.74h11.05v11.7H281.24Z"
    />
    <path
      class="path"
      d="M354.9,2.94V14.65H346V61.44h-15V14.65H322V2.94Z"
    />
    <path
      class="path"
      d="M393,2.94v58.5H377.89V36.87h-4.5V61.44H358.33V2.94h15.06V23.86h4.5V2.94Z"
    />
    <path
      class="path"
      d="M399,2.94h25.1V14.65H414V25.74h9.41V36.87H414V49.74h11v11.7H399Z"
    />
    <path
      class="path"
      d="M475.87,2.94v58.5H462.71l0-39.49-5.24,39.49h-9.33l-5.53-38.59V61.44H429.42V2.94H448.9q.86,5.28,1.78,12.44l2.14,14.88,3.46-27.32Z"
    />
    <path
      class="path"
      d="M481.91,2.94H507V14.65H497V25.74h9.41V36.87H497V49.74H508v11.7h-26.1Z"
    />
  </g>
</svg>
